# xmcd
#
# Track frame offsets:
#	150
#	15840
#	31121
#	48015
#	60248
#	75056
#	90766
#	107394
#	123238
#	140335
#	154765
#	176460
#
# Disc length: 2525 seconds
#
# Revision: 0
# Processed by: cddbd v1.5.2PL0 Copyright (c) Steve Scherf et al.
# Submitted via: EasyCDDAExtractor 12.0.1.1
#
DISCID=6809db0c
DTITLE=Various Artist - Made In France CD2
DYEAR=2008
DGENRE=Club
TTITLE0=Olivia Ruiz - J'Traine Des Pieds
TTITLE1=Les Blerots de Ravel - Une Rue
TTITLE2=Aron'C - A quoi ca sert
TTITLE3=Amelie Les Crayons - La Maigrelette
TTITLE4=Clarica - Joker
TTITLE5=Benabar - Quatre murst et un toit
TTITLE6=Mayra Andrade - Comme s'il en pleuvait
TTITLE7=Renan Luce - Les Voisines
TTITLE8=La Mine De Rein - La Satire
TTITLE9=Olivier Libaux - Le petit success
TTITLE10=Flow - Faust pas Rever
TTITLE11=Felipecha - Quelque part
EXTD=YEAR: 2008\n
EXTT0=
EXTT1=
EXTT2=
EXTT3=
EXTT4=
EXTT5=
EXTT6=
EXTT7=
EXTT8=
EXTT9=
EXTT10=
EXTT11=
PLAYORDER=
